<?xml version="1.0" encoding="UTF-8" standalone="no"?>
<svg
   xmlns:dc="http://purl.org/dc/elements/1.1/"
   xmlns:cc="http://creativecommons.org/ns#"
   xmlns:rdf="http://www.w3.org/1999/02/22-rdf-syntax-ns#"
   xmlns:svg="http://www.w3.org/2000/svg"
   xmlns="http://www.w3.org/2000/svg"
   xmlns:sodipodi="http://sodipodi.sourceforge.net/DTD/sodipodi-0.dtd"
   xmlns:inkscape="http://www.inkscape.org/namespaces/inkscape"
   role="img"
   viewBox="0 0 26.5 25.899342"
   version="1.1"
   id="svg884"
   sodipodi:docname="github.svg"
   width="26.5"
   height="25.899342"
   inkscape:version="1.0.1 (3bc2e813f5, 2020-09-07)">
  <metadata
     id="metadata890">
    <rdf:RDF>
      <cc:Work
         rdf:about="">
        <dc:format>image/svg+xml</dc:format>
        <dc:type
           rdf:resource="http://purl.org/dc/dcmitype/StillImage" />
        <dc:title>GitHub</dc:title>
      </cc:Work>
    </rdf:RDF>
  </metadata>
  <defs
     id="defs888" />
  <sodipodi:namedview
     pagecolor="#ffffff"
     bordercolor="#666666"
     borderopacity="1"
     objecttolerance="10"
     gridtolerance="10"
     guidetolerance="10"
     inkscape:pageopacity="0"
     inkscape:pageshadow="2"
     inkscape:window-width="1920"
     inkscape:window-height="1017"
     id="namedview886"
     showgrid="false"
     inkscape:pagecheckerboard="true"
     fit-margin-top="0"
     fit-margin-left="0"
     fit-margin-right="0"
     fit-margin-bottom="0"
     inkscape:zoom="34.458333"
     inkscape:cx="13.25"
     inkscape:cy="11.792178"
     inkscape:window-x="-8"
     inkscape:window-y="-8"
     inkscape:window-maximized="1"
     inkscape:current-layer="layer5" />
  <title
     id="title880">GitHub</title>
  <g
     inkscape:groupmode="layer"
     id="layer5"
     inkscape:label="Layer 3"
     transform="translate(1.25,0.953)">
    <path
       d="m 12,0.297 c -6.63,0 -12,5.373 -12,12 0,5.303 3.438,9.8 8.205,11.385 0.6,0.113 0.82,-0.258 0.82,-0.577 0,-0.285 -0.01,-1.04 -0.015,-2.04 C 5.672,21.789 4.968,19.455 4.968,19.455 4.422,18.07 3.633,17.7 3.633,17.7 2.546,16.956 3.717,16.971 3.717,16.971 c 1.205,0.084 1.838,1.236 1.838,1.236 1.07,1.835 2.809,1.305 3.495,0.998 C 9.158,18.429 9.467,17.9 9.81,17.6 7.145,17.3 4.344,16.268 4.344,11.67 4.344,10.36 4.809,9.29 5.579,8.45 5.444,8.147 5.039,6.927 5.684,5.274 c 0,0 1.005,-0.322 3.3,1.23 0.96,-0.267 1.98,-0.399 3,-0.405 1.02,0.006 2.04,0.138 3,0.405 2.28,-1.552 3.285,-1.23 3.285,-1.23 0.645,1.653 0.24,2.873 0.12,3.176 0.765,0.84 1.23,1.91 1.23,3.22 0,4.61 -2.805,5.625 -5.475,5.92 0.42,0.36 0.81,1.096 0.81,2.22 0,1.606 -0.015,2.896 -0.015,3.286 0,0.315 0.21,0.69 0.825,0.57 C 20.565,22.092 24,17.592 24,12.297 c 0,-6.627 -5.373,-12 -12,-12"
       id="path921"
       style="display:inline;opacity:0.994;fill:none;stroke:#ffffff;stroke-width:2.5;stroke-linecap:round;stroke-linejoin:round;stroke-miterlimit:4;stroke-dasharray:none;stroke-opacity:1;paint-order:normal" />
  </g>
  <g
     inkscape:groupmode="layer"
     id="layer2"
     inkscape:label="Layer 1"
     style="display:inline"
     transform="translate(1.25,0.953)">
    <path
       d="m 12,0.297 c -6.63,0 -12,5.373 -12,12 0,5.303 3.438,9.8 8.205,11.385 0.6,0.113 0.82,-0.258 0.82,-0.577 0,-0.285 -0.01,-1.04 -0.015,-2.04 C 5.672,21.789 4.968,19.455 4.968,19.455 4.422,18.07 3.633,17.7 3.633,17.7 2.546,16.956 3.717,16.971 3.717,16.971 c 1.205,0.084 1.838,1.236 1.838,1.236 1.07,1.835 2.809,1.305 3.495,0.998 C 9.158,18.429 9.467,17.9 9.81,17.6 7.145,17.3 4.344,16.268 4.344,11.67 4.344,10.36 4.809,9.29 5.579,8.45 5.444,8.147 5.039,6.927 5.684,5.274 c 0,0 1.005,-0.322 3.3,1.23 0.96,-0.267 1.98,-0.399 3,-0.405 1.02,0.006 2.04,0.138 3,0.405 2.28,-1.552 3.285,-1.23 3.285,-1.23 0.645,1.653 0.24,2.873 0.12,3.176 0.765,0.84 1.23,1.91 1.23,3.22 0,4.61 -2.805,5.625 -5.475,5.92 0.42,0.36 0.81,1.096 0.81,2.22 0,1.606 -0.015,2.896 -0.015,3.286 0,0.315 0.21,0.69 0.825,0.57 C 20.565,22.092 24,17.592 24,12.297 c 0,-6.627 -5.373,-12 -12,-12"
       id="path882"
       style="opacity:0.995" />
  </g>
</svg>
