<?xml version="1.0" encoding="UTF-8" standalone="no"?>
<svg
   xmlns:dc="http://purl.org/dc/elements/1.1/"
   xmlns:cc="http://creativecommons.org/ns#"
   xmlns:rdf="http://www.w3.org/1999/02/22-rdf-syntax-ns#"
   xmlns:svg="http://www.w3.org/2000/svg"
   xmlns="http://www.w3.org/2000/svg"
   xmlns:sodipodi="http://sodipodi.sourceforge.net/DTD/sodipodi-0.dtd"
   xmlns:inkscape="http://www.inkscape.org/namespaces/inkscape"
   fill="#181717"
   viewBox="0 0 24.700001 24.103664"
   version="1.1"
   id="svg22"
   sodipodi:docname="github.svg"
   inkscape:version="1.0.1 (3bc2e813f5, 2020-09-07)"
   width="24.700001"
   height="24.103664">
  <metadata
     id="metadata28">
    <rdf:RDF>
      <cc:Work
         rdf:about="">
        <dc:format>image/svg+xml</dc:format>
        <dc:type
           rdf:resource="http://purl.org/dc/dcmitype/StillImage" />
      </cc:Work>
    </rdf:RDF>
  </metadata>
  <defs
     id="defs26" />
  <sodipodi:namedview
     pagecolor="#ffffff"
     bordercolor="#666666"
     borderopacity="1"
     objecttolerance="10"
     gridtolerance="10"
     guidetolerance="10"
     inkscape:pageopacity="0"
     inkscape:pageshadow="2"
     inkscape:window-width="1920"
     inkscape:window-height="1017"
     id="namedview24"
     showgrid="true"
     inkscape:zoom="35.416667"
     inkscape:cx="6.914706"
     inkscape:cy="8.7168201"
     inkscape:window-x="-8"
     inkscape:window-y="-8"
     inkscape:window-maximized="1"
     inkscape:current-layer="svg22"
     inkscape:document-rotation="0">
    <inkscape:grid
       type="xygrid"
       id="grid32"
       originx="0.3500001"
       originy="0.051832153" />
  </sodipodi:namedview>
  <path
     id="path20-0"
     d="M 12.35,0.34999999 C 5.72,0.34999999 0.34999999,5.723 0.34999999,12.35 c 0,5.303 3.43807811,9.799766 8.20507811,11.384766 0.6,0.113 0.8203125,-0.257172 0.8203125,-0.576172 0,-0.285 -0.010625,-1.041016 -0.015625,-2.041016 -3.338,0.724 -4.0410157,-1.609375 -4.0410156,-1.609375 -0.5460001,-1.385 -1.3359376,-1.755859 -1.3359376,-1.755859 -1.0869999,-0.744 0.083984,-0.728516 0.083984,-0.728516 1.205,0.084 1.8378906,1.236328 1.8378906,1.236329 1.0700001,1.835 2.8100939,1.305046 3.4960938,0.998046 0.108,-0.776 0.4167656,-1.305468 0.7597652,-1.605468 -2.6649996,-0.3 -5.4667964,-1.331688 -5.4667964,-5.929688 0,-1.31 0.4643749,-2.380703 1.234375,-3.220703 -0.135,-0.303 -0.5395313,-1.522781 0.1054687,-3.175781 0,0 1.0057812,-0.321531 3.3007813,1.230468 0.9599994,-0.266999 1.9800004,-0.398296 3.0000004,-0.404296 1.02,0.006 2.04,0.137297 3,0.404296 2.28,-1.551999 3.285156,-1.230468 3.285156,-1.230468 0.645,1.653 0.239141,2.872781 0.119141,3.175781 0.765,0.84 1.230468,1.910703 1.230468,3.220703 0,4.61 -2.804609,5.624922 -5.474609,5.919922 0.42,0.36 0.808594,1.096703 0.808594,2.220703 0,1.606 -0.01367,2.895156 -0.01367,3.285156 0,0.315 0.209219,0.690313 0.824219,0.570313 C 20.91467,22.145141 24.35,17.645 24.35,12.35 24.35,5.723 18.977,0.34999999 12.35,0.34999999 Z"
     style="stroke:#ffffff;stroke-width:0.7;stroke-miterlimit:4;stroke-dasharray:none;stroke-opacity:1" />
  <path
     id="path20"
     sodipodi:type="inkscape:offset"
     inkscape:radius="0"
     inkscape:original="M 12 0.296875 C 5.37 0.296875 0 5.669875 0 12.296875 C 0 17.599875 3.4380781 22.096641 8.2050781 23.681641 C 8.8050781 23.794641 9.0253906 23.424469 9.0253906 23.105469 C 9.0253906 22.820469 9.0147656 22.064453 9.0097656 21.064453 C 5.6717656 21.788453 4.96875 19.455078 4.96875 19.455078 C 4.42275 18.070078 3.6328125 17.699219 3.6328125 17.699219 C 2.5458125 16.955219 3.7167969 16.970703 3.7167969 16.970703 C 4.9217969 17.054703 5.5546875 18.207031 5.5546875 18.207031 C 6.6246875 20.042031 8.3647813 19.512078 9.0507812 19.205078 C 9.1587812 18.429078 9.4675469 17.899609 9.8105469 17.599609 C 7.1455469 17.299609 4.34375 16.267922 4.34375 11.669922 C 4.34375 10.359922 4.808125 9.2892187 5.578125 8.4492188 C 5.443125 8.1462188 5.0385938 6.9264375 5.6835938 5.2734375 C 5.6835938 5.2734375 6.689375 4.9519062 8.984375 6.5039062 C 9.944375 6.2369062 10.964375 6.1056094 11.984375 6.0996094 C 13.004375 6.1056094 14.024375 6.2369062 14.984375 6.5039062 C 17.264375 4.9519063 18.269531 5.2734375 18.269531 5.2734375 C 18.914531 6.9264375 18.508672 8.1462187 18.388672 8.4492188 C 19.153672 9.2892187 19.619141 10.359922 19.619141 11.669922 C 19.619141 16.279922 16.814531 17.294844 14.144531 17.589844 C 14.564531 17.949844 14.953125 18.686547 14.953125 19.810547 C 14.953125 21.416547 14.939453 22.705703 14.939453 23.095703 C 14.939453 23.410703 15.148672 23.786016 15.763672 23.666016 C 20.564672 22.092016 24 17.591875 24 12.296875 C 24 5.669875 18.627 0.296875 12 0.296875 z "
     d="m 12,0.296875 c -6.63,0 -12,5.373 -12,12 0,5.303 3.4380781,9.799766 8.2050781,11.384766 0.6,0.113 0.8203125,-0.257172 0.8203125,-0.576172 0,-0.285 -0.010625,-1.041016 -0.015625,-2.041016 -3.338,0.724 -4.0410156,-1.609375 -4.0410156,-1.609375 -0.546,-1.385 -1.3359375,-1.755859 -1.3359375,-1.755859 -1.087,-0.744 0.083984,-0.728516 0.083984,-0.728516 1.205,0.084 1.8378906,1.236328 1.8378906,1.236328 1.07,1.835 2.8100938,1.305047 3.4960937,0.998047 0.108,-0.776 0.4167657,-1.305469 0.7597657,-1.605469 -2.665,-0.3 -5.4667969,-1.331687 -5.4667969,-5.929687 0,-1.31 0.464375,-2.3807033 1.234375,-3.2207032 -0.135,-0.303 -0.5395312,-1.5227813 0.1054688,-3.1757813 0,0 1.0057812,-0.3215313 3.3007812,1.2304687 0.96,-0.267 1.98,-0.3982968 3,-0.4042968 1.02,0.006 2.04,0.1372968 3,0.4042968 2.28,-1.5519999 3.285156,-1.2304687 3.285156,-1.2304687 0.645,1.653 0.239141,2.8727812 0.119141,3.1757813 0.765,0.8399999 1.230469,1.9107032 1.230469,3.2207032 0,4.61 -2.80461,5.624922 -5.47461,5.919922 0.42,0.36 0.808594,1.096703 0.808594,2.220703 0,1.606 -0.01367,2.895156 -0.01367,3.285156 0,0.315 0.209219,0.690313 0.824219,0.570313 C 20.564672,22.092016 24,17.591875 24,12.296875 c 0,-6.627 -5.373,-12 -12,-12 z"
     transform="translate(0.35000009,0.0521889)" />
</svg>
