<?xml version="1.0" encoding="UTF-8" standalone="no"?>
<svg
   xmlns:dc="http://purl.org/dc/elements/1.1/"
   xmlns:cc="http://creativecommons.org/ns#"
   xmlns:rdf="http://www.w3.org/1999/02/22-rdf-syntax-ns#"
   xmlns:svg="http://www.w3.org/2000/svg"
   xmlns="http://www.w3.org/2000/svg"
   xmlns:xlink="http://www.w3.org/1999/xlink"
   xmlns:sodipodi="http://sodipodi.sourceforge.net/DTD/sodipodi-0.dtd"
   xmlns:inkscape="http://www.inkscape.org/namespaces/inkscape"
   height="533.33331"
   width="533.33331"
   viewBox="-8.093805 -13.489675 31.176137 53.958698"
   version="1.1"
   id="svg54"
   sodipodi:docname="instagram.svg"
   inkscape:version="1.0.1 (3bc2e813f5, 2020-09-07)">
  <metadata
     id="metadata58">
    <rdf:RDF>
      <cc:Work
         rdf:about="">
        <dc:format>image/svg+xml</dc:format>
        <dc:type
           rdf:resource="http://purl.org/dc/dcmitype/StillImage" />
      </cc:Work>
    </rdf:RDF>
  </metadata>
  <sodipodi:namedview
     pagecolor="#ffffff"
     bordercolor="#666666"
     borderopacity="1"
     objecttolerance="10"
     gridtolerance="10"
     guidetolerance="10"
     inkscape:pageopacity="0"
     inkscape:pageshadow="2"
     inkscape:window-width="1920"
     inkscape:window-height="1017"
     id="namedview56"
     showgrid="false"
     inkscape:zoom="0.86833333"
     inkscape:cx="266.66667"
     inkscape:cy="266.66667"
     inkscape:window-x="-8"
     inkscape:window-y="-8"
     inkscape:window-maximized="1"
     inkscape:current-layer="svg54" />
  <defs
     id="defs44">
    <linearGradient
       id="a"
       y2="1.7526"
       x2="1.7537"
       y1="-5.8041"
       x1="-5.8092999">
      <stop
         offset="0%"
         stop-color="#FFD521"
         id="stop2" />
      <stop
         offset="5%"
         stop-color="#FFD521"
         id="stop4" />
      <stop
         offset="50.1119%"
         stop-color="#F50000"
         id="stop6" />
      <stop
         offset="95%"
         stop-color="#B900B4"
         id="stop8" />
      <stop
         offset="95.0079%"
         stop-color="#B900B4"
         id="stop10" />
      <stop
         offset="100%"
         stop-color="#B900B4"
         id="stop12" />
    </linearGradient>
    <linearGradient
       id="b"
       y2="0.91750002"
       x2="0.91750002"
       y1="0.0091000004"
       x1="0.0089999996">
      <stop
         offset="0%"
         stop-color="#FFD521"
         id="stop15" />
      <stop
         offset="5%"
         stop-color="#FFD521"
         id="stop17" />
      <stop
         offset="50.1119%"
         stop-color="#F50000"
         id="stop19" />
      <stop
         offset="95%"
         stop-color="#B900B4"
         id="stop21" />
      <stop
         offset="95.0079%"
         stop-color="#B900B4"
         id="stop23" />
      <stop
         offset="100%"
         stop-color="#B900B4"
         id="stop25" />
    </linearGradient>
    <linearGradient
       id="c"
       y2="1.3128"
       x2="1.3126"
       y1="-0.456"
       x1="-0.4558">
      <stop
         offset="0%"
         stop-color="#FFD521"
         id="stop28" />
      <stop
         offset="5%"
         stop-color="#FFD521"
         id="stop30" />
      <stop
         offset="50.1119%"
         stop-color="#F50000"
         id="stop32" />
      <stop
         offset="95%"
         stop-color="#B900B4"
         id="stop34" />
      <stop
         offset="95.0079%"
         stop-color="#B900B4"
         id="stop36" />
      <stop
         offset="100%"
         stop-color="#B900B4"
         id="stop38" />
    </linearGradient>
    <linearGradient
       gradientUnits="userSpaceOnUse"
       gradientTransform="scale(1.00041,0.99959)"
       y2="11.412"
       x2="11.3667"
       y1="-37.545502"
       x1="-37.631199"
       id="d"
       xlink:href="#a" />
    <linearGradient
       gradientUnits="userSpaceOnUse"
       y2="49.554001"
       x2="49.5047"
       y1="0.53600001"
       x1="0.4867"
       id="e"
       xlink:href="#b" />
    <linearGradient
       gradientUnits="userSpaceOnUse"
       gradientTransform="scale(0.99988,1.00012)"
       y2="36.481602"
       x2="36.431499"
       y1="-12.5305"
       x1="-12.5688"
       id="f"
       xlink:href="#c" />
  </defs>
  <g
     fill="none"
     id="g52"
     transform="translate(-19.485086,-13.489676)">
    <path
       d="m 6.4867,3.292 c 0,1.7933 -1.4534,3.2413 -3.24,3.2413 -1.7867,0 -3.2414,-1.448 -3.2414,-3.2413 0,-1.7867 1.4547,-3.2347 3.2414,-3.2347 1.7866,0 3.24,1.448 3.24,3.2347"
       fill="url(#d)"
       transform="matrix(1,0,0,-1,38.1333,15.8707)"
       id="path46"
       style="fill:url(#d)" />
    <path
       d="m 48.9373,16.124 c -0.12,-2.6307 -0.56,-4.06 -0.9253,-5.0093 C 47.5213,9.856 46.936,8.956 45.9867,8.012 45.048,7.068 44.148,6.484 42.8893,5.9987 41.94,5.628 40.5053,5.1867 37.8747,5.0613 35.0307,4.936 34.188,4.9093 26.976,4.9093 19.7707,4.9093 18.9213,4.936 16.0773,5.0613 13.4467,5.1867 12.0187,5.628 11.0693,5.9987 9.804,6.484 8.9107,7.068 7.9667,8.012 7.016,8.956 6.4307,9.856 5.9467,11.1147 5.5813,12.064 5.1347,13.4933 5.0213,16.124 c -0.1386,2.844 -0.164,3.7 -0.164,10.8973 0,7.212 0.0254,8.0614 0.164,10.9054 0.1134,2.6306 0.56,4.0586 0.9254,5.016 0.484,1.2573 1.0693,2.152 2.02,3.096 0.944,0.9426 1.8373,1.528 3.1026,2.0186 0.9494,0.372 2.3774,0.8067 5.008,0.932 2.844,0.1254 3.6934,0.1574 10.8987,0.1574 7.212,0 8.0547,-0.032 10.8987,-0.1574 2.6306,-0.1253 4.0653,-0.56 5.0146,-0.932 1.2587,-0.4906 2.1587,-1.076 3.0974,-2.0186 0.9493,-0.944 1.5346,-1.8387 2.0253,-3.096 0.3653,-0.9574 0.8053,-2.3854 0.9253,-5.016 0.132,-2.844 0.164,-3.6934 0.164,-10.9054 0,-7.1973 -0.032,-8.0533 -0.164,-10.8973 z m 4.8574,22.024 c -0.132,2.8747 -0.5854,4.8387 -1.2587,6.5493 -0.6853,1.7747 -1.604,3.2787 -3.108,4.7827 -1.4973,1.4973 -3.0013,2.416 -4.776,3.1093 -1.7173,0.6667 -3.6747,1.1254 -6.5507,1.2507 -2.876,0.1387 -3.7946,0.164 -11.1253,0.164 -7.324,0 -8.2493,-0.0253 -11.1253,-0.164 C 12.9813,53.7147 11.0253,53.256 9.3,52.5893 7.532,51.896 6.028,50.9773 4.5307,49.48 3.0267,47.976 2.108,46.472 1.416,44.6973 0.7493,42.9867 0.296,41.0227 0.1573,38.148 0.032,35.272 0,34.352 0,27.0213 0,19.6973 0.032,18.7787 0.1573,15.9027 0.296,13.0333 0.7493,11.0707 1.416,9.352 2.108,7.584 3.0267,6.0733 4.5307,4.576 6.028,3.0787 7.532,2.1533 9.3,1.4613 c 1.7253,-0.6666 3.6813,-1.12 6.5507,-1.252 2.876,-0.132 3.8013,-0.164 11.1253,-0.164 7.3307,0 8.2493,0.032 11.1253,0.164 2.876,0.132 4.8334,0.5854 6.5507,1.252 1.7747,0.692 3.2787,1.6174 4.776,3.1147 1.504,1.4973 2.4227,3.008 3.108,4.776 0.6733,1.7187 1.1267,3.6813 1.2587,6.5507 0.132,2.876 0.164,3.7946 0.164,11.1186 0,7.3307 -0.032,8.2507 -0.164,11.1267 z"
       fill="url(#e)"
       transform="matrix(1,0,0,-1,0,54.004)"
       id="path48"
       style="fill:url(#e)" />
    <path
       d="m 13.9093,4.9693 c -4.964,0 -8.992,4.0214 -8.992,8.9854 0,4.972 4.028,8.9986 8.992,8.9986 4.9654,0 8.9987,-4.0266 8.9987,-8.9986 0,-4.964 -4.0333,-8.9854 -8.9987,-8.9854 z m 0,22.848 C 6.2573,27.8173 0.06,21.6067 0.06,13.9547 0.06,6.3093 6.2573,0.1053 13.9093,0.1053 c 7.652,0 13.856,6.204 13.856,13.8494 0,7.652 -6.204,13.8626 -13.856,13.8626 z"
       fill="url(#f)"
       transform="matrix(1,0,0,-1,13.0667,40.9373)"
       id="path50"
       style="fill:url(#f)" />
  </g>
</svg>
