<?xml version="1.0" encoding="UTF-8" standalone="no"?>
<svg
   xmlns:figma="http://www.figma.com/figma/ns"
   xmlns:dc="http://purl.org/dc/elements/1.1/"
   xmlns:cc="http://creativecommons.org/ns#"
   xmlns:rdf="http://www.w3.org/1999/02/22-rdf-syntax-ns#"
   xmlns:svg="http://www.w3.org/2000/svg"
   xmlns="http://www.w3.org/2000/svg"
   xmlns:sodipodi="http://sodipodi.sourceforge.net/DTD/sodipodi-0.dtd"
   xmlns:inkscape="http://www.inkscape.org/namespaces/inkscape"
   version="1.1"
   id="Layer_1"
   x="0px"
   y="0px"
   viewBox="0 0 46.545807 50.581165"
   xml:space="preserve"
   sodipodi:docname="jupyter.svg"
   inkscape:version="1.0.1 (3bc2e813f5, 2020-09-07)"
   width="46.545807"
   height="50.581165"><metadata
   id="metadata879"><rdf:RDF><cc:Work
       rdf:about=""><dc:format>image/svg+xml</dc:format><dc:type
         rdf:resource="http://purl.org/dc/dcmitype/StillImage" /><dc:title></dc:title></cc:Work></rdf:RDF></metadata><defs
   id="defs877" /><sodipodi:namedview
   pagecolor="#ffffff"
   bordercolor="#666666"
   borderopacity="1"
   objecttolerance="10"
   gridtolerance="10"
   guidetolerance="10"
   inkscape:pageopacity="0"
   inkscape:pageshadow="2"
   inkscape:window-width="1920"
   inkscape:window-height="1017"
   id="namedview875"
   showgrid="false"
   inkscape:zoom="13.525781"
   inkscape:cx="23.372892"
   inkscape:cy="30.325863"
   inkscape:window-x="-8"
   inkscape:window-y="-8"
   inkscape:window-maximized="1"
   inkscape:current-layer="layer2"
   inkscape:document-rotation="0"
   fit-margin-top="0"
   fit-margin-left="0"
   fit-margin-right="0"
   fit-margin-bottom="0" />
<style
   type="text/css"
   id="style857">
	.st0{fill:#4E4E4E;}
	.st1{fill:#767677;}
	.st2{fill:#F37726;}
	.st3{fill:#9E9E9E;}
	.st4{fill:#616262;}
</style>

<g
   figma:type="group"
   id="g872"
   transform="translate(1.3728919,-0.32787042)">
	
	
	
	
	
</g>
<g
   inkscape:groupmode="layer"
   id="layer2"
   inkscape:label="Layer 2"
   sodipodi:insensitive="true"
   transform="translate(1.3728919,-0.32787042)"><path
     id="path897"
     class="st0"
     d="m 2.3,26.8 c 0,1.6 -0.1,2.1 -0.4,2.4 -0.4,0.3 -0.8,0.5 -1.3,0.5 l 0.1,0.9 c 0.7,0 1.5,-0.3 2,-0.7 C 3,29.5 3.2,29.1 3.4,28.6 3.5,28.1 3.6,27.7 3.5,27.2 V 21.3 H 2.3 Z"
     style="fill:none;stroke:#ffffff;stroke-width:3.94583;stroke-linecap:round;stroke-linejoin:round;stroke-miterlimit:4;stroke-dasharray:none;stroke-opacity:1;paint-order:normal" /><path
     id="path899"
     class="st0"
     d="m 11.2,26.1 c 0,0.7 0,1.3 0.1,1.8 H 10.2 L 10.1,26.8 C 9.9,27.2 9.6,27.5 9.2,27.7 8.8,27.9 8.4,28 8,28 7,28 5.7,27.4 5.7,25.2 V 21.4 H 6.9 V 25 c 0,1.2 0.4,2.1 1.5,2.1 0.2,0 0.4,0 0.6,-0.1 C 9.2,26.9 9.4,26.8 9.5,26.6 9.7,26.4 9.8,26.3 9.9,26.1 10,25.9 10,25.7 10,25.5 v -4 h 1.2 z"
     style="fill:none;stroke:#ffffff;stroke-width:3.94583;stroke-linecap:round;stroke-linejoin:round;stroke-miterlimit:4;stroke-dasharray:none;stroke-opacity:1;paint-order:normal" /><path
     id="path901"
     class="st0"
     d="m 13.4,23.5 c 0,-0.8 0,-1.5 -0.1,-2.1 h 1.1 l 0.1,1.1 c 0.2,-0.4 0.6,-0.7 1,-1 0.4,-0.2 0.9,-0.3 1.3,-0.3 1.6,0 2.8,1.3 2.8,3.3 0,2.3 -1.4,3.5 -3,3.5 -0.4,0 -0.8,-0.1 -1.1,-0.2 -0.4,-0.2 -0.7,-0.4 -0.9,-0.8 v 0 3.6 h -1.2 z m 1.2,1.8 c 0,0.2 0,0.3 0.1,0.5 0.1,0.4 0.3,0.7 0.7,1 0.3,0.2 0.7,0.4 1.1,0.4 1.3,0 2,-1 2,-2.5 0,-1.3 -0.7,-2.4 -1.9,-2.4 -0.5,0 -1,0.3 -1.3,0.6 -0.3,0.3 -0.5,0.8 -0.6,1.3 v 1.1 z"
     style="fill:none;stroke:#ffffff;stroke-width:3.94583;stroke-linecap:round;stroke-linejoin:round;stroke-miterlimit:4;stroke-dasharray:none;stroke-opacity:1;paint-order:normal" /><path
     id="path903"
     class="st0"
     d="m 21.7,21.4 1.4,3.8 c 0.2,0.4 0.3,0.9 0.4,1.3 0.1,-0.4 0.3,-0.9 0.4,-1.4 l 1.3,-3.8 h 1.3 L 24.8,26 c -0.9,2.2 -1.4,3.4 -2.3,4.1 -0.4,0.4 -0.9,0.6 -1.5,0.8 l -0.3,-1 c 0.4,-0.1 0.7,-0.3 1,-0.6 0.4,-0.4 0.8,-0.8 1,-1.3 0,-0.1 0.1,-0.2 0.1,-0.3 0,-0.1 0,-0.2 -0.1,-0.3 l -2.4,-6 z"
     style="fill:none;stroke:#ffffff;stroke-width:3.94583;stroke-linecap:round;stroke-linejoin:round;stroke-miterlimit:4;stroke-dasharray:none;stroke-opacity:1;paint-order:normal" /><path
     id="path905"
     class="st0"
     d="m 29.7,19.5 v 1.9 h 1.7 v 0.9 h -1.7 v 3.5 c 0,0.8 0.2,1.3 0.9,1.3 0.2,0 0.5,0 0.7,-0.1 l 0.1,0.9 C 31,28 30.7,28.1 30.3,28 30.1,28 29.8,28 29.6,27.9 29.4,27.8 29.2,27.7 29,27.5 28.6,27 28.5,26.4 28.5,25.8 v -3.6 h -1 v -0.9 h 1 v -1.6 z"
     style="fill:none;stroke:#ffffff;stroke-width:3.94583;stroke-linecap:round;stroke-linejoin:round;stroke-miterlimit:4;stroke-dasharray:none;stroke-opacity:1;paint-order:normal" /><path
     id="path907"
     class="st0"
     d="m 33.6,24.9 c 0,0.3 0,0.6 0.1,0.9 0.1,0.3 0.3,0.5 0.5,0.8 0.2,0.2 0.5,0.4 0.8,0.5 0.3,0.1 0.6,0.1 0.9,0.1 0.6,0 1.2,-0.1 1.8,-0.3 l 0.2,0.9 c -0.7,0.3 -1.4,0.4 -2.2,0.4 -0.4,0 -0.9,0 -1.3,-0.2 C 34,27.8 33.6,27.6 33.3,27.3 33,27 32.8,26.6 32.6,26.2 c -0.1,-0.4 -0.2,-0.8 -0.2,-1.3 0,-2 1.2,-3.5 3.1,-3.5 2.1,0 2.7,1.9 2.7,3.1 0,0.2 0,0.4 0,0.6 z M 37.1,24 c 0,-0.2 0,-0.5 -0.1,-0.7 -0.1,-0.2 -0.2,-0.4 -0.3,-0.6 -0.2,-0.2 -0.4,-0.3 -0.6,-0.4 -0.2,-0.1 -0.5,-0.2 -0.7,-0.2 -0.5,0 -0.9,0.3 -1.3,0.6 -0.3,0.4 -0.5,0.8 -0.5,1.3 z"
     style="fill:none;stroke:#ffffff;stroke-width:3.94583;stroke-linecap:round;stroke-linejoin:round;stroke-miterlimit:4;stroke-dasharray:none;stroke-opacity:1;paint-order:normal" /><path
     id="path909"
     class="st0"
     d="m 40,23.4 c 0,-0.8 0,-1.4 -0.1,-2 H 41 v 1.3 h 0.1 c 0.1,-0.4 0.3,-0.7 0.7,-1 0.3,-0.3 0.7,-0.4 1.1,-0.4 0.1,0 0.2,0 0.3,0 v 1.1 c -0.1,0 -0.3,0 -0.4,0 -0.4,0 -0.8,0.2 -1.1,0.5 -0.3,0.3 -0.5,0.7 -0.5,1.1 0,0.2 -0.1,0.4 -0.1,0.6 v 3.5 H 40 Z"
     style="fill:none;stroke:#ffffff;stroke-width:3.94583;stroke-linecap:round;stroke-linejoin:round;stroke-miterlimit:4;stroke-dasharray:none;stroke-opacity:1;paint-order:normal" /><path
     id="path911"
     class="st1"
     d="m 39.5,3.5 c 0,0.6 -0.1,1.2 -0.4,1.7 C 38.8,5.7 38.3,6.1 37.8,6.4 37.3,6.7 36.7,6.8 36.1,6.7 35.5,6.6 35,6.4 34.5,6 34,5.6 33.7,5 33.6,4.4 33.5,3.8 33.5,3.2 33.7,2.6 33.9,2 34.3,1.5 34.8,1.2 c 0.5,-0.4 1.1,-0.6 1.7,-0.6 0.4,0 0.8,0 1.2,0.2 0.4,0.1 0.7,0.3 1,0.6 0.3,0.3 0.5,0.6 0.7,0.9 0.2,0.3 0.1,0.8 0.1,1.2 z"
     style="fill:none;stroke:#ffffff;stroke-width:0.544252;stroke-linecap:round;stroke-linejoin:round;stroke-miterlimit:4;stroke-dasharray:none;stroke-opacity:1" /><path
     id="path913"
     class="st3"
     d="m 10.9,46.7 c 0,0.8 -0.1,1.5 -0.5,2.2 C 10,49.5 9.4,50 8.7,50.3 8,50.6 7.3,50.7 6.5,50.6 5.8,50.5 5.1,50.2 4.5,49.7 3.9,49.2 3.5,48.5 3.4,47.8 3.2,47.1 3.3,46.3 3.5,45.6 c 0.3,-0.7 0.7,-1.3 1.3,-1.8 0.6,-0.4 1.3,-0.7 2.1,-0.7 0.5,0 1,0 1.5,0.2 0.5,0.2 0.9,0.4 1.3,0.8 0.4,0.4 0.7,0.7 0.9,1.2 0.1,0.4 0.2,0.9 0.3,1.4 z"
     style="fill:none;stroke:#ffffff;stroke-width:0.544252;stroke-linecap:round;stroke-linejoin:round;stroke-miterlimit:4;stroke-dasharray:none;stroke-opacity:1" /><path
     id="path915"
     class="st4"
     d="M 4.1,9.8 C 3.7,9.8 3.2,9.7 2.9,9.5 2.5,9.3 2.2,8.9 2.1,8.5 1.9,8.1 1.8,7.7 1.9,7.3 2,6.9 2.2,6.5 2.5,6.2 2.8,5.9 3.2,5.7 3.6,5.6 4,5.4 4.4,5.4 4.8,5.6 5.2,5.8 5.6,6 5.8,6.4 6.1,6.7 6.2,7.2 6.2,7.6 6.2,8.2 6,8.8 5.6,9.2 5.3,9.5 4.7,9.8 4.1,9.8 Z"
     style="fill:none;stroke:#ffffff;stroke-width:0.544252;stroke-linecap:round;stroke-linejoin:round;stroke-miterlimit:4;stroke-dasharray:none;stroke-opacity:1" /></g><g
   inkscape:groupmode="layer"
   id="layer3"
   inkscape:label="Layer 3"
   sodipodi:insensitive="true"
   transform="translate(1.3728919,-0.32787042)"><g
     id="g"
     figma:type="group">
	<path
   id="path0_fill"
   class="st0"
   d="m 2.3,26.8 c 0,1.6 -0.1,2.1 -0.4,2.4 -0.4,0.3 -0.8,0.5 -1.3,0.5 l 0.1,0.9 c 0.7,0 1.5,-0.3 2,-0.7 C 3,29.5 3.2,29.1 3.4,28.6 3.5,28.1 3.6,27.7 3.5,27.2 V 21.3 H 2.3 Z" />
	<path
   id="path1_fill"
   class="st0"
   d="m 11.2,26.1 c 0,0.7 0,1.3 0.1,1.8 H 10.2 L 10.1,26.8 C 9.9,27.2 9.6,27.5 9.2,27.7 8.8,27.9 8.4,28 8,28 7,28 5.7,27.4 5.7,25.2 V 21.4 H 6.9 V 25 c 0,1.2 0.4,2.1 1.5,2.1 0.2,0 0.4,0 0.6,-0.1 C 9.2,26.9 9.4,26.8 9.5,26.6 9.7,26.4 9.8,26.3 9.9,26.1 10,25.9 10,25.7 10,25.5 v -4 h 1.2 z" />
	<path
   id="path2_fill"
   class="st0"
   d="m 13.4,23.5 c 0,-0.8 0,-1.5 -0.1,-2.1 h 1.1 l 0.1,1.1 c 0.2,-0.4 0.6,-0.7 1,-1 0.4,-0.2 0.9,-0.3 1.3,-0.3 1.6,0 2.8,1.3 2.8,3.3 0,2.3 -1.4,3.5 -3,3.5 -0.4,0 -0.8,-0.1 -1.1,-0.2 -0.4,-0.2 -0.7,-0.4 -0.9,-0.8 v 0 3.6 h -1.2 z m 1.2,1.8 c 0,0.2 0,0.3 0.1,0.5 0.1,0.4 0.3,0.7 0.7,1 0.3,0.2 0.7,0.4 1.1,0.4 1.3,0 2,-1 2,-2.5 0,-1.3 -0.7,-2.4 -1.9,-2.4 -0.5,0 -1,0.3 -1.3,0.6 -0.3,0.3 -0.5,0.8 -0.6,1.3 v 1.1 z" />
	<path
   id="path3_fill"
   class="st0"
   d="m 21.7,21.4 1.4,3.8 c 0.2,0.4 0.3,0.9 0.4,1.3 0.1,-0.4 0.3,-0.9 0.4,-1.4 l 1.3,-3.8 h 1.3 L 24.8,26 c -0.9,2.2 -1.4,3.4 -2.3,4.1 -0.4,0.4 -0.9,0.6 -1.5,0.8 l -0.3,-1 c 0.4,-0.1 0.7,-0.3 1,-0.6 0.4,-0.4 0.8,-0.8 1,-1.3 0,-0.1 0.1,-0.2 0.1,-0.3 0,-0.1 0,-0.2 -0.1,-0.3 l -2.4,-6 z" />
	<path
   id="path4_fill"
   class="st0"
   d="m 29.7,19.5 v 1.9 h 1.7 v 0.9 h -1.7 v 3.5 c 0,0.8 0.2,1.3 0.9,1.3 0.2,0 0.5,0 0.7,-0.1 l 0.1,0.9 C 31,28 30.7,28.1 30.3,28 30.1,28 29.8,28 29.6,27.9 29.4,27.8 29.2,27.7 29,27.5 28.6,27 28.5,26.4 28.5,25.8 v -3.6 h -1 v -0.9 h 1 v -1.6 z" />
	<path
   id="path5_fill"
   class="st0"
   d="m 33.6,24.9 c 0,0.3 0,0.6 0.1,0.9 0.1,0.3 0.3,0.5 0.5,0.8 0.2,0.2 0.5,0.4 0.8,0.5 0.3,0.1 0.6,0.1 0.9,0.1 0.6,0 1.2,-0.1 1.8,-0.3 l 0.2,0.9 c -0.7,0.3 -1.4,0.4 -2.2,0.4 -0.4,0 -0.9,0 -1.3,-0.2 C 34,27.8 33.6,27.6 33.3,27.3 33,27 32.8,26.6 32.6,26.2 c -0.1,-0.4 -0.2,-0.8 -0.2,-1.3 0,-2 1.2,-3.5 3.1,-3.5 2.1,0 2.7,1.9 2.7,3.1 0,0.2 0,0.4 0,0.6 z M 37.1,24 c 0,-0.2 0,-0.5 -0.1,-0.7 -0.1,-0.2 -0.2,-0.4 -0.3,-0.6 -0.2,-0.2 -0.4,-0.3 -0.6,-0.4 -0.2,-0.1 -0.5,-0.2 -0.7,-0.2 -0.5,0 -0.9,0.3 -1.3,0.6 -0.3,0.4 -0.5,0.8 -0.5,1.3 z" />
	<path
   id="path6_fill"
   class="st0"
   d="m 40,23.4 c 0,-0.8 0,-1.4 -0.1,-2 H 41 v 1.3 h 0.1 c 0.1,-0.4 0.3,-0.7 0.7,-1 0.3,-0.3 0.7,-0.4 1.1,-0.4 0.1,0 0.2,0 0.3,0 v 1.1 c -0.1,0 -0.3,0 -0.4,0 -0.4,0 -0.8,0.2 -1.1,0.5 -0.3,0.3 -0.5,0.7 -0.5,1.1 0,0.2 -0.1,0.4 -0.1,0.6 v 3.5 H 40 Z" />
</g><path
     id="path7_fill"
     class="st1"
     d="m 39.5,3.5 c 0,0.6 -0.1,1.2 -0.4,1.7 C 38.8,5.7 38.3,6.1 37.8,6.4 37.3,6.7 36.7,6.8 36.1,6.7 35.5,6.6 35,6.4 34.5,6 34,5.6 33.7,5 33.6,4.4 33.5,3.8 33.5,3.2 33.7,2.6 33.9,2 34.3,1.5 34.8,1.2 c 0.5,-0.4 1.1,-0.6 1.7,-0.6 0.4,0 0.8,0 1.2,0.2 0.4,0.1 0.7,0.3 1,0.6 0.3,0.3 0.5,0.6 0.7,0.9 0.2,0.3 0.1,0.8 0.1,1.2 z" /><path
     id="path8_fill"
     class="st2"
     d="m 21.9,38.4 c -8,0 -15.1,-2.9 -18.7,-7.1 1.4,3.8 4,7.1 7.3,9.4 3.3,2.3 7.3,3.6 11.4,3.6 4.1,0 8,-1.2 11.4,-3.6 3.3,-2.3 5.9,-5.6 7.3,-9.4 C 37,35.5 30,38.4 21.9,38.4 Z" /><path
     id="path9_fill"
     class="st2"
     d="m 21.9,10.8 c 8,0 15.1,2.9 18.7,7.1 -1.4,-3.8 -4,-7.1 -7.3,-9.4 C 30,6.1 26,4.9 21.9,4.9 c -4.1,0 -8,1.2 -11.4,3.6 -3.3,2.3 -5.9,5.6 -7.3,9.4 3.7,-4.3 10.7,-7.1 18.7,-7.1 z" /><path
     id="path10_fill"
     class="st3"
     d="m 10.9,46.7 c 0,0.8 -0.1,1.5 -0.5,2.2 C 10,49.5 9.4,50 8.7,50.3 8,50.6 7.3,50.7 6.5,50.6 5.8,50.5 5.1,50.2 4.5,49.7 3.9,49.2 3.5,48.5 3.4,47.8 3.2,47.1 3.3,46.3 3.5,45.6 c 0.3,-0.7 0.7,-1.3 1.3,-1.8 0.6,-0.4 1.3,-0.7 2.1,-0.7 0.5,0 1,0 1.5,0.2 0.5,0.2 0.9,0.4 1.3,0.8 0.4,0.4 0.7,0.7 0.9,1.2 0.1,0.4 0.2,0.9 0.3,1.4 z" /><path
     id="path11_fill"
     class="st4"
     d="M 4.1,9.8 C 3.7,9.8 3.2,9.7 2.9,9.5 2.5,9.3 2.2,8.9 2.1,8.5 1.9,8.1 1.8,7.7 1.9,7.3 2,6.9 2.2,6.5 2.5,6.2 2.8,5.9 3.2,5.7 3.6,5.6 4,5.4 4.4,5.4 4.8,5.6 5.2,5.8 5.6,6 5.8,6.4 6.1,6.7 6.2,7.2 6.2,7.6 6.2,8.2 6,8.8 5.6,9.2 5.3,9.5 4.7,9.8 4.1,9.8 Z" /></g></svg>
