<?xml version="1.0" encoding="UTF-8" standalone="no"?>
<svg
   xmlns:dc="http://purl.org/dc/elements/1.1/"
   xmlns:cc="http://creativecommons.org/ns#"
   xmlns:rdf="http://www.w3.org/1999/02/22-rdf-syntax-ns#"
   xmlns:svg="http://www.w3.org/2000/svg"
   xmlns="http://www.w3.org/2000/svg"
   xmlns:sodipodi="http://sodipodi.sourceforge.net/DTD/sodipodi-0.dtd"
   xmlns:inkscape="http://www.inkscape.org/namespaces/inkscape"
   version="1.0"
   width="1200"
   height="500"
   overflow="scroll"
   id="svg16"
   sodipodi:docname="LaTeX_logo.svg"
   inkscape:version="1.0.1 (3bc2e813f5, 2020-09-07)">
  <metadata
     id="metadata22">
    <rdf:RDF>
      <cc:Work
         rdf:about="">
        <dc:format>image/svg+xml</dc:format>
        <dc:type
           rdf:resource="http://purl.org/dc/dcmitype/StillImage" />
      </cc:Work>
    </rdf:RDF>
  </metadata>
  <defs
     id="defs20" />
  <sodipodi:namedview
     pagecolor="#ffffff"
     bordercolor="#666666"
     borderopacity="1"
     objecttolerance="10"
     gridtolerance="10"
     guidetolerance="10"
     inkscape:pageopacity="0"
     inkscape:pageshadow="2"
     inkscape:window-width="1920"
     inkscape:window-height="1017"
     id="namedview18"
     showgrid="false"
     inkscape:zoom="0.86833333"
     inkscape:cx="600"
     inkscape:cy="65.738964"
     inkscape:window-x="-8"
     inkscape:window-y="-8"
     inkscape:window-maximized="1"
     inkscape:current-layer="svg16" />
  <title
     id="title2">LaTeX logo</title>
  <g
     transform="matrix(45,0,0,45,40,40)"
     fill="black"
     id="g14">
    <path
       transform="translate(0,0.17)"
       d="M5.46,4.23 C5.46,4.23 5.21,4.23 5.21,4.23 C5.11,5.25 4.97,6.49 3.21,6.49 C3.21,6.49 2.4,6.49 2.4,6.49 C1.93,6.49 1.91,6.42 1.91,6.09 C1.91,6.09 1.91,0.78 1.91,0.78 C1.91,0.44 1.91,0.3 2.85,0.3 C2.85,0.3 3.18,0.3 3.18,0.3 C3.18,0.3 3.18,0 3.18,0 C2.82,0.03 1.92,0.03 1.51,0.03 C1.12,0.03 0.34,0.03 0,0 C0,0 0,0.3 0,0.3 C0,0.3 0.23,0.3 0.23,0.3 C1,0.3 1.02,0.41 1.02,0.77 C1.02,0.77 1.02,6.02 1.02,6.02 C1.02,6.38 1,6.49 0.23,6.49 C0.23,6.49 0,6.49 0,6.49 C0,6.49 0,6.8 0,6.8 C0,6.8 5.19,6.8 5.19,6.8 C5.19,6.8 5.46,4.23 5.46,4.23 z"
       id="path4" />
    <path
       transform="translate(2.48)"
       d="M2.81,0.16 C2.77,0.04 2.75,0 2.62,0 C2.49,0 2.46,0.04 2.42,0.16 C2.42,0.16 0.81,4.24 0.81,4.24 C0.74,4.41 0.62,4.72 0,4.72 C0,4.72 0,4.97 0,4.97 C0,4.97 1.55,4.97 1.55,4.97 C1.55,4.97 1.55,4.72 1.55,4.72 C1.24,4.72 1.05,4.58 1.05,4.38 C1.05,4.33 1.06,4.31 1.08,4.24 C1.08,4.24 1.42,3.38 1.42,3.38 C1.42,3.38 3.4,3.38 3.4,3.38 C3.4,3.38 3.8,4.4 3.8,4.4 C3.82,4.44 3.84,4.49 3.84,4.52 C3.84,4.72 3.46,4.72 3.27,4.72 C3.27,4.72 3.27,4.97 3.27,4.97 C3.27,4.97 5.24,4.97 5.24,4.97 C5.24,4.97 5.24,4.72 5.24,4.72 C5.24,4.72 5.1,4.72 5.1,4.72 C4.63,4.72 4.58,4.65 4.51,4.45 C4.51,4.45 2.81,0.16 2.81,0.16 z M2.41,0.87 C2.41,0.87 3.3,3.13 3.3,3.13 C3.3,3.13 1.52,3.13 1.52,3.13 C1.52,3.13 2.41,0.87 2.41,0.87 z"
       id="path6" />
    <path
       transform="translate(7.03,0.23)"
       d="M6.27,0 C6.27,0 0.18,0 0.18,0 C0.18,0 0,2.24 0,2.24 C0,2.24 0.24,2.24 0.24,2.24 C0.38,0.63 0.53,0.3 2.04,0.3 C2.22,0.3 2.48,0.3 2.58,0.32 C2.79,0.36 2.79,0.47 2.79,0.7 C2.79,0.7 2.79,5.95 2.79,5.95 C2.79,6.29 2.79,6.43 1.74,6.43 C1.74,6.43 1.34,6.43 1.34,6.43 C1.34,6.43 1.34,6.74 1.34,6.74 C1.75,6.71 2.76,6.71 3.22,6.71 C3.68,6.71 4.71,6.71 5.12,6.74 C5.12,6.74 5.12,6.43 5.12,6.43 C5.12,6.43 4.72,6.43 4.72,6.43 C3.67,6.43 3.67,6.29 3.67,5.95 C3.67,5.95 3.67,0.7 3.67,0.7 C3.67,0.5 3.67,0.36 3.85,0.32 C3.96,0.3 4.23,0.3 4.42,0.3 C5.92,0.3 6.07,0.63 6.21,2.24 C6.21,2.24 6.46,2.24 6.46,2.24 C6.46,2.24 6.27,0 6.27,0 z"
       id="path8" />
    <path
       transform="translate(12.5,2.45)"
       d="M6.16,4.2 C6.16,4.2 5.91,4.2 5.91,4.2 C5.66,5.73 5.43,6.46 3.72,6.46 C3.72,6.46 2.4,6.46 2.4,6.46 C1.93,6.46 1.91,6.39 1.91,6.06 C1.91,6.06 1.91,3.4 1.91,3.4 C1.91,3.4 2.8,3.4 2.8,3.4 C3.77,3.4 3.88,3.72 3.88,4.57 C3.88,4.57 4.13,4.57 4.13,4.57 C4.13,4.57 4.13,1.93 4.13,1.93 C4.13,1.93 3.88,1.93 3.88,1.93 C3.88,2.78 3.77,3.09 2.8,3.09 C2.8,3.09 1.91,3.09 1.91,3.09 C1.91,3.09 1.91,0.7 1.91,0.7 C1.91,0.37 1.93,0.3 2.4,0.3 C2.4,0.3 3.68,0.3 3.68,0.3 C5.21,0.3 5.47,0.85 5.63,2.24 C5.63,2.24 5.88,2.24 5.88,2.24 C5.88,2.24 5.6,0 5.6,0 C5.6,0 0,0 0,0 C0,0 0,0.3 0,0.3 C0,0.3 0.23,0.3 0.23,0.3 C1,0.3 1.02,0.41 1.02,0.77 C1.02,0.77 1.02,5.99 1.02,5.99 C1.02,6.35 1,6.46 0.23,6.46 C0.23,6.46 0,6.46 0,6.46 C0,6.46 0,6.77 0,6.77 C0,6.77 5.74,6.77 5.74,6.77 C5.74,6.77 6.16,4.2 6.16,4.2 z"
       id="path10" />
    <path
       transform="translate(17.91,0.17)"
       d="M3.76,2.95 C3.76,2.95 5.13,0.95 5.13,0.95 C5.34,0.63 5.68,0.31 6.57,0.3 C6.57,0.3 6.57,0 6.57,0 C6.57,0 4.19,0 4.19,0 C4.19,0 4.19,0.3 4.19,0.3 C4.59,0.31 4.81,0.53 4.81,0.76 C4.81,0.86 4.79,0.88 4.72,0.99 C4.72,0.99 3.58,2.67 3.58,2.67 C3.58,2.67 2.3,0.75 2.3,0.75 C2.28,0.72 2.23,0.64 2.23,0.6 C2.23,0.48 2.45,0.31 2.87,0.3 C2.87,0.3 2.87,0 2.87,0 C2.53,0.03 1.8,0.03 1.42,0.03 C1.11,0.03 0.49,0.02 0.12,0 C0.12,0 0.12,0.3 0.12,0.3 C0.12,0.3 0.31,0.3 0.31,0.3 C0.86,0.3 1.05,0.37 1.24,0.65 C1.24,0.65 3.07,3.42 3.07,3.42 C3.07,3.42 1.44,5.83 1.44,5.83 C1.3,6.03 1,6.49 0,6.49 C0,6.49 0,6.8 0,6.8 C0,6.8 2.38,6.8 2.38,6.8 C2.38,6.8 2.38,6.49 2.38,6.49 C1.92,6.48 1.75,6.21 1.75,6.03 C1.75,5.94 1.78,5.9 1.85,5.79 C1.85,5.79 3.26,3.7 3.26,3.7 C3.26,3.7 4.84,6.08 4.84,6.08 C4.86,6.12 4.89,6.16 4.89,6.19 C4.89,6.31 4.67,6.48 4.24,6.49 C4.24,6.49 4.24,6.8 4.24,6.8 C4.59,6.77 5.32,6.77 5.69,6.77 C6.11,6.77 6.57,6.78 6.99,6.8 C6.99,6.8 6.99,6.49 6.99,6.49 C6.99,6.49 6.8,6.49 6.8,6.49 C6.28,6.49 6.07,6.44 5.86,6.13 C5.86,6.13 3.76,2.95 3.76,2.95 z"
       id="path12" />
  </g>
  <path
     id="path4-0"
     style="fill:#000000;stroke:#ffffff;stroke-width:5;stroke-miterlimit:4;stroke-dasharray:none;stroke-opacity:1"
     d="m 269.5,39.999805 c -5.85,0 -7.2,1.79922 -9,7.19922 L 188.05078,230.80058 c -3.15,7.65001 -8.55117,21.59961 -36.45117,21.59961 v 11.25 h 69.75 v -11.25 c -13.95,0 -22.5,-6.30077 -22.5,-15.30077 0,-2.25 0.44961,-3.14883 1.34961,-6.29884 L 215.5,192.09941 h 89.09961 l 18,45.90039 c 0.9,1.8 1.80078,4.05039 1.80078,5.40039 0,9 -17.10039,9 -25.65039,9 v 11.25 h 88.65039 v -11.25 h -6.30078 c -21.15,0 -23.39883,-3.15039 -26.54883,-12.15039 l -76.5,-193.050775 c -1.8,-5.4 -2.70078,-7.19922 -8.55078,-7.19922 z M 40,47.650195 v 13.5 h 10.34961 c 34.65,0 35.55078,4.95039 35.55078,21.15039 V 318.55058 c 0,16.2 -0.90078,21.14844 -35.55078,21.14844 H 40 v 13.95117 H 273.55078 L 285.69922,237.9998 h -11.25 c -4.5,45.9 -10.8,101.69922 -90,101.69922 H 148 c -21.15,0 -22.05078,-3.15 -22.05078,-18 V 82.749805 c 0,-15.3 7.8e-4,-21.59961 42.30078,-21.59961 h 14.84961 v -13.5 c -16.2,1.35 -56.70039,1.34961 -75.15039,1.34961 -17.55,0 -52.64922,3.9e-4 -67.94922,-1.34961 z m 811.34961,0 v 13.5 h 8.55078 c 24.75,0 33.29961,3.15 41.84961,15.75 L 984.09961,201.55058 910.75,309.9998 c -6.3,9 -19.80078,29.69922 -64.80078,29.69922 v 13.95117 h 20.03711 c -10.6421,59.02225 -24.7207,87.29883 -96.08594,87.29883 H 710.5 c -21.15,0 -22.05078,-3.15 -22.05078,-18 V 303.2498 H 728.5 c 43.65,0 48.59961,14.40039 48.59961,52.65039 h 11.25 V 237.09941 h -11.25 c 0,38.25 -4.94961,52.20117 -48.59961,52.20117 H 688.44922 V 181.7498 c 0,-14.85 0.90078,-18 22.05078,-18 h 57.59961 c 68.85,0 80.55,24.75078 87.75,87.30078 h 11.25 L 854.5,150.2498 H 646.97461 L 638.5,50.349415 H 364.44922 l -8.09961,100.800775 h 10.80078 c 6.3,-72.449995 13.05,-87.300775 81,-87.300775 8.1,0 19.79883,3.9e-4 24.29883,0.90039 9.45,1.8 9.45117,6.74961 9.45117,17.09961 V 318.09941 c 0,15.3 0,21.59961 -47.25,21.59961 h -18 v 13.95117 c 18.45,-1.35 63.89961,-1.34961 84.59961,-1.34961 20.7,0 67.05,-3.9e-4 85.5,1.34961 v -13.95117 h -18 c -47.25,0 -47.25,-6.29961 -47.25,-21.59961 V 81.849415 c 0,-9 -3.9e-4,-15.29961 8.09961,-17.09961 4.95,-0.9 17.10039,-0.90039 25.65039,-0.90039 67.20598,0 74.18919,14.76475 80.4668,86.400385 H 602.5 v 13.5 h 10.34961 c 34.65,0 35.55078,4.95039 35.55078,21.15039 v 234.90039 c 0,16.2 -0.90078,21.14844 -35.55078,21.14844 H 602.5 v 13.95117 h 258.30078 l 16.54492,-101.25 h 75.70508 v -13.95117 c -20.7,-0.45 -28.35156,-12.59922 -28.35156,-20.69922 0,-4.05 1.35,-5.85078 4.5,-10.80078 L 992.65039,214.15019 1063.75,321.2498 c 0.9,1.8 2.25,3.59922 2.25,4.94922 0,5.4 -9.9,13.05 -29.25,13.5 v 13.95117 c 15.75,-1.35 48.6,-1.34961 65.25,-1.34961 18.9,0 39.6,0.44961 58.5,1.34961 v -13.95117 h -8.5508 c -23.4,0 -32.8488,-2.24922 -42.2988,-16.19922 l -94.5,-143.09961 61.6504,-89.999995 c 9.45,-14.4 24.7488,-28.8 64.7988,-29.25 v -13.5 H 1034.5 v 13.5 c 18,0.45 27.9004,10.34922 27.9004,20.69922 0,4.5 -0.9008,5.39961 -4.0508,10.34961 l -51.2988,75.601555 -57.60158,-86.400385 c -0.9,-1.35 -3.14844,-4.95 -3.14844,-6.75 0,-5.4 9.89883,-13.05 28.79883,-13.5 v -13.5 c -15.3,1.35 -48.15,1.34961 -65.25,1.34961 -13.95,0 -41.85,-0.44961 -58.5,-1.34961 z m -591.29883,31.5 40.04883,101.699215 H 220 Z" />
</svg>
