<?xml version="1.0" encoding="UTF-8" standalone="no"?>
<svg
   xmlns:dc="http://purl.org/dc/elements/1.1/"
   xmlns:cc="http://creativecommons.org/ns#"
   xmlns:rdf="http://www.w3.org/1999/02/22-rdf-syntax-ns#"
   xmlns:svg="http://www.w3.org/2000/svg"
   xmlns="http://www.w3.org/2000/svg"
   xmlns:sodipodi="http://sodipodi.sourceforge.net/DTD/sodipodi-0.dtd"
   xmlns:inkscape="http://www.inkscape.org/namespaces/inkscape"
   height="500"
   overflow="scroll"
   width="1200"
   version="1.1"
   id="svg861"
   sodipodi:docname="LaTeX_logo.svg"
   inkscape:version="1.0.1 (3bc2e813f5, 2020-09-07)">
  <metadata
     id="metadata867">
    <rdf:RDF>
      <cc:Work
         rdf:about="">
        <dc:format>image/svg+xml</dc:format>
        <dc:type
           rdf:resource="http://purl.org/dc/dcmitype/StillImage" />
        <dc:title></dc:title>
      </cc:Work>
    </rdf:RDF>
  </metadata>
  <defs
     id="defs865" />
  <sodipodi:namedview
     pagecolor="#ffffff"
     bordercolor="#666666"
     borderopacity="1"
     objecttolerance="10"
     gridtolerance="10"
     guidetolerance="10"
     inkscape:pageopacity="0"
     inkscape:pageshadow="2"
     inkscape:window-width="1920"
     inkscape:window-height="1017"
     id="namedview863"
     showgrid="false"
     inkscape:zoom="0.56916667"
     inkscape:cx="600"
     inkscape:cy="179.72182"
     inkscape:window-x="-8"
     inkscape:window-y="-8"
     inkscape:window-maximized="1"
     inkscape:current-layer="layer2" />
  <g
     inkscape:groupmode="layer"
     id="layer2"
     inkscape:label="Layer 2"
     style="display:inline"
     sodipodi:insensitive="true">
    <path
       d="M 5.46,4.23 H 5.21 c -0.1,1.02 -0.24,2.26 -2,2.26 H 2.4 C 1.93,6.49 1.91,6.42 1.91,6.09 V 0.78 c 0,-0.34 0,-0.48 0.94,-0.48 H 3.18 V 0 C 2.82,0.03 1.92,0.03 1.51,0.03 1.12,0.03 0.34,0.03 0,0 V 0.3 H 0.23 C 1,0.3 1.02,0.41 1.02,0.77 V 6.02 C 1.02,6.38 1,6.49 0.23,6.49 H 0 V 6.8 h 5.19 z"
       transform="matrix(45,0,0,45,40,47.65)"
       id="path877"
       style="display:inline;fill:none;stroke:#ffffff;stroke-width:1.25144;stroke-linecap:round;stroke-linejoin:round;stroke-miterlimit:4;stroke-dasharray:none;stroke-opacity:1" />
    <path
       d="M 2.81,0.16 C 2.77,0.04 2.75,0 2.62,0 2.49,0 2.46,0.04 2.42,0.16 L 0.81,4.24 C 0.74,4.41 0.62,4.72 0,4.72 V 4.97 H 1.55 V 4.72 c -0.31,0 -0.5,-0.14 -0.5,-0.34 0,-0.05 0.01,-0.07 0.03,-0.14 0,0 0.34,-0.86 0.34,-0.86 H 3.4 L 3.8,4.4 c 0.02,0.04 0.04,0.09 0.04,0.12 0,0.2 -0.38,0.2 -0.57,0.2 V 4.97 H 5.24 V 4.72 H 5.1 c -0.47,0 -0.52,-0.07 -0.59,-0.27 0,0 -1.7,-4.29 -1.7,-4.29 z M 2.41,0.87 3.3,3.13 H 1.52 Z"
       transform="matrix(45,0,0,45,151.6,40)"
       id="path879"
       style="display:inline;fill:none;stroke:#ffffff;stroke-width:1.25144;stroke-linecap:round;stroke-linejoin:round;stroke-miterlimit:4;stroke-dasharray:none;stroke-opacity:1" />
    <path
       d="M 6.27,0 H 0.18 C 0.18,0 0,2.24 0,2.24 H 0.24 C 0.38,0.63 0.53,0.3 2.04,0.3 c 0.18,0 0.44,0 0.54,0.02 0.21,0.04 0.21,0.15 0.21,0.38 v 5.25 c 0,0.34 0,0.48 -1.05,0.48 H 1.34 V 6.74 C 1.75,6.71 2.76,6.71 3.22,6.71 c 0.46,0 1.49,0 1.9,0.03 V 6.43 H 4.72 C 3.67,6.43 3.67,6.29 3.67,5.95 V 0.7 c 0,-0.2 0,-0.34 0.18,-0.38 C 3.96,0.3 4.23,0.3 4.42,0.3 c 1.5,0 1.65,0.33 1.79,1.94 H 6.46 C 6.46,2.24 6.27,0 6.27,0 Z"
       transform="matrix(45,0,0,45,356.35,50.35)"
       id="path881"
       style="display:inline;fill:none;stroke:#ffffff;stroke-width:1.25144;stroke-linecap:round;stroke-linejoin:round;stroke-miterlimit:4;stroke-dasharray:none;stroke-opacity:1" />
    <path
       d="M 6.16,4.2 H 5.91 C 5.66,5.73 5.43,6.46 3.72,6.46 H 2.4 C 1.93,6.46 1.91,6.39 1.91,6.06 V 3.4 H 2.8 c 0.97,0 1.08,0.32 1.08,1.17 H 4.13 V 1.93 H 3.88 C 3.88,2.78 3.77,3.09 2.8,3.09 H 1.91 V 0.7 C 1.91,0.37 1.93,0.3 2.4,0.3 h 1.28 c 1.53,0 1.79,0.55 1.95,1.94 H 5.88 L 5.6,0 H 0 V 0.3 H 0.23 C 1,0.3 1.02,0.41 1.02,0.77 V 5.99 C 1.02,6.35 1,6.46 0.23,6.46 H 0 v 0.31 h 5.74 z"
       transform="matrix(45,0,0,45,602.5,150.25)"
       id="path883"
       style="display:inline;fill:none;stroke:#ffffff;stroke-width:1.25144;stroke-linecap:round;stroke-linejoin:round;stroke-miterlimit:4;stroke-dasharray:none;stroke-opacity:1" />
    <path
       d="m 3.76,2.95 1.37,-2 C 5.34,0.63 5.68,0.31 6.57,0.3 V 0 H 4.19 v 0.3 c 0.4,0.01 0.62,0.23 0.62,0.46 0,0.1 -0.02,0.12 -0.09,0.23 0,0 -1.14,1.68 -1.14,1.68 L 2.3,0.75 C 2.28,0.72 2.23,0.64 2.23,0.6 2.23,0.48 2.45,0.31 2.87,0.3 V 0 C 2.53,0.03 1.8,0.03 1.42,0.03 1.11,0.03 0.49,0.02 0.12,0 v 0.3 h 0.19 c 0.55,0 0.74,0.07 0.93,0.35 0,0 1.83,2.77 1.83,2.77 L 1.44,5.83 C 1.3,6.03 1,6.49 0,6.49 V 6.8 H 2.38 V 6.49 C 1.92,6.48 1.75,6.21 1.75,6.03 1.75,5.94 1.78,5.9 1.85,5.79 L 3.26,3.7 4.84,6.08 c 0.02,0.04 0.05,0.08 0.05,0.11 0,0.12 -0.22,0.29 -0.65,0.3 V 6.8 C 4.59,6.77 5.32,6.77 5.69,6.77 c 0.42,0 0.88,0.01 1.3,0.03 V 6.49 H 6.8 c -0.52,0 -0.73,-0.05 -0.94,-0.36 0,0 -2.1,-3.18 -2.1,-3.18 z"
       id="path885"
       transform="matrix(45,0,0,45,845.95,47.65)"
       style="display:inline;fill:none;stroke:#ffffff;stroke-width:1.25144;stroke-linecap:round;stroke-linejoin:round;stroke-miterlimit:4;stroke-dasharray:none;stroke-opacity:1" />
    <rect
       style="opacity:0.994;fill:#ffffff;fill-opacity:1;stroke:none;stroke-width:56.315;stroke-linecap:round;stroke-linejoin:round;stroke-miterlimit:4;stroke-dasharray:none;stroke-opacity:1"
       id="rect896"
       width="35.139091"
       height="47.437775"
       x="226.64714"
       y="210.83455" />
  </g>
  <g
     inkscape:groupmode="layer"
     id="layer3"
     inkscape:label="Layer 3"
     style="display:inline"
     sodipodi:insensitive="true">
    <path
       d="M 5.46,4.23 H 5.21 c -0.1,1.02 -0.24,2.26 -2,2.26 H 2.4 C 1.93,6.49 1.91,6.42 1.91,6.09 V 0.78 c 0,-0.34 0,-0.48 0.94,-0.48 H 3.18 V 0 C 2.82,0.03 1.92,0.03 1.51,0.03 1.12,0.03 0.34,0.03 0,0 V 0.3 H 0.23 C 1,0.3 1.02,0.41 1.02,0.77 V 6.02 C 1.02,6.38 1,6.49 0.23,6.49 H 0 V 6.8 h 5.19 z"
       transform="matrix(45,0,0,45,40,47.65)"
       id="path851" />
    <path
       d="M 2.81,0.16 C 2.77,0.04 2.75,0 2.62,0 2.49,0 2.46,0.04 2.42,0.16 L 0.81,4.24 C 0.74,4.41 0.62,4.72 0,4.72 V 4.97 H 1.55 V 4.72 c -0.31,0 -0.5,-0.14 -0.5,-0.34 0,-0.05 0.01,-0.07 0.03,-0.14 0,0 0.34,-0.86 0.34,-0.86 H 3.4 L 3.8,4.4 c 0.02,0.04 0.04,0.09 0.04,0.12 0,0.2 -0.38,0.2 -0.57,0.2 V 4.97 H 5.24 V 4.72 H 5.1 c -0.47,0 -0.52,-0.07 -0.59,-0.27 0,0 -1.7,-4.29 -1.7,-4.29 z M 2.41,0.87 3.3,3.13 H 1.52 Z"
       transform="matrix(45,0,0,45,151.6,40)"
       id="path853" />
    <path
       d="M 6.27,0 H 0.18 C 0.18,0 0,2.24 0,2.24 H 0.24 C 0.38,0.63 0.53,0.3 2.04,0.3 c 0.18,0 0.44,0 0.54,0.02 0.21,0.04 0.21,0.15 0.21,0.38 v 5.25 c 0,0.34 0,0.48 -1.05,0.48 H 1.34 V 6.74 C 1.75,6.71 2.76,6.71 3.22,6.71 c 0.46,0 1.49,0 1.9,0.03 V 6.43 H 4.72 C 3.67,6.43 3.67,6.29 3.67,5.95 V 0.7 c 0,-0.2 0,-0.34 0.18,-0.38 C 3.96,0.3 4.23,0.3 4.42,0.3 c 1.5,0 1.65,0.33 1.79,1.94 H 6.46 C 6.46,2.24 6.27,0 6.27,0 Z"
       transform="matrix(45,0,0,45,356.35,50.35)"
       id="path855" />
    <path
       d="M 6.16,4.2 H 5.91 C 5.66,5.73 5.43,6.46 3.72,6.46 H 2.4 C 1.93,6.46 1.91,6.39 1.91,6.06 V 3.4 H 2.8 c 0.97,0 1.08,0.32 1.08,1.17 H 4.13 V 1.93 H 3.88 C 3.88,2.78 3.77,3.09 2.8,3.09 H 1.91 V 0.7 C 1.91,0.37 1.93,0.3 2.4,0.3 h 1.28 c 1.53,0 1.79,0.55 1.95,1.94 H 5.88 L 5.6,0 H 0 V 0.3 H 0.23 C 1,0.3 1.02,0.41 1.02,0.77 V 5.99 C 1.02,6.35 1,6.46 0.23,6.46 H 0 v 0.31 h 5.74 z"
       transform="matrix(45,0,0,45,602.5,150.25)"
       id="path857" />
    <path
       d="m 3.76,2.95 1.37,-2 C 5.34,0.63 5.68,0.31 6.57,0.3 V 0 H 4.19 v 0.3 c 0.4,0.01 0.62,0.23 0.62,0.46 0,0.1 -0.02,0.12 -0.09,0.23 0,0 -1.14,1.68 -1.14,1.68 L 2.3,0.75 C 2.28,0.72 2.23,0.64 2.23,0.6 2.23,0.48 2.45,0.31 2.87,0.3 V 0 C 2.53,0.03 1.8,0.03 1.42,0.03 1.11,0.03 0.49,0.02 0.12,0 v 0.3 h 0.19 c 0.55,0 0.74,0.07 0.93,0.35 0,0 1.83,2.77 1.83,2.77 L 1.44,5.83 C 1.3,6.03 1,6.49 0,6.49 V 6.8 H 2.38 V 6.49 C 1.92,6.48 1.75,6.21 1.75,6.03 1.75,5.94 1.78,5.9 1.85,5.79 L 3.26,3.7 4.84,6.08 c 0.02,0.04 0.05,0.08 0.05,0.11 0,0.12 -0.22,0.29 -0.65,0.3 V 6.8 C 4.59,6.77 5.32,6.77 5.69,6.77 c 0.42,0 0.88,0.01 1.3,0.03 V 6.49 H 6.8 c -0.52,0 -0.73,-0.05 -0.94,-0.36 0,0 -2.1,-3.18 -2.1,-3.18 z"
       transform="matrix(45,0,0,45,845.95,47.65)"
       id="path859" />
  </g>
</svg>
