<?xml version="1.0" encoding="UTF-8" standalone="no"?>
<svg
   xmlns:dc="http://purl.org/dc/elements/1.1/"
   xmlns:cc="http://creativecommons.org/ns#"
   xmlns:rdf="http://www.w3.org/1999/02/22-rdf-syntax-ns#"
   xmlns:svg="http://www.w3.org/2000/svg"
   xmlns="http://www.w3.org/2000/svg"
   xmlns:sodipodi="http://sodipodi.sourceforge.net/DTD/sodipodi-0.dtd"
   xmlns:inkscape="http://www.inkscape.org/namespaces/inkscape"
   viewBox="0 0 818.63 331.21"
   version="1.1"
   id="svg32"
   sodipodi:docname="pandas.svg"
   inkscape:version="1.0.1 (3bc2e813f5, 2020-09-07)">
  <metadata
     id="metadata38">
    <rdf:RDF>
      <cc:Work
         rdf:about="">
        <dc:format>image/svg+xml</dc:format>
        <dc:type
           rdf:resource="http://purl.org/dc/dcmitype/StillImage" />
      </cc:Work>
    </rdf:RDF>
  </metadata>
  <defs
     id="defs36" />
  <sodipodi:namedview
     pagecolor="#ffffff"
     bordercolor="#666666"
     borderopacity="1"
     objecttolerance="10"
     gridtolerance="10"
     guidetolerance="10"
     inkscape:pageopacity="0"
     inkscape:pageshadow="2"
     inkscape:window-width="1920"
     inkscape:window-height="1017"
     id="namedview34"
     showgrid="false"
     inkscape:zoom="1.2728583"
     inkscape:cx="435.2409"
     inkscape:cy="165.605"
     inkscape:window-x="-8"
     inkscape:window-y="-8"
     inkscape:window-maximized="1"
     inkscape:current-layer="svg32"
     inkscape:document-rotation="0" />
  <path
     id="path2-0"
     d="m 150.67012,55.39016 v 166.26953 h 24.08984 V 55.39016 Z M 74.879101,68.419454 v 50.021486 h 24.08984 V 68.419454 Z M 588.82051,90.82961 v 40.21094 c -6.56,-8.32 -17.01125,-12.58008 -27.28125,-12.58008 -20.76,0 -36,17.36062 -36,40.39062 0,23.03 15.27,40.39844 36,40.39844 10.8,0 22.13953,-4.95961 28.51953,-14.34961 l 0.71094,12.23047 H 609.3791 V 90.82961 Z m -552.630859,18.7207 v 166.26953 h 24.08984 V 109.55031 Z m 76.589839,0.0606 v 50.01953 h 24.08985 v -50.01953 z m 639.73047,8.69922 c -20.73,0 -30.12109,11.33086 -30.12109,23.38086 0,10.81 6.73172,20.72859 25.51172,24.80859 10.45,2.48 16.29882,4.42993 16.29882,9.91993 0,6.38 -5.67031,8.86132 -13.82031,8.86132 -11.34,0 -20.72969,-4.78976 -26.92969,-8.50976 l -3.36914,14.16992 a 60.16,60.16 0 0 0 30.65039,8.68945 c 19.67,0 31.71969,-10.10031 31.67969,-26.57031 0,-10.28 -8.15156,-19.66992 -28.35156,-23.91992 -8.14,-1.95 -13.45899,-4.26063 -13.45899,-9.39063 0,-4.61 4.08039,-7.43945 12.4004,-7.43945 a 44.59,44.59 0 0 1 22.13867,6.38086 l 3.37109,-13.4707 c -2.43,-1.42 -13.42,-6.91016 -26,-6.91016 z m -461.67969,0.0996 c -10.81,0 -22.14148,4.96156 -28.52148,14.35156 l -0.70898,-12.2207 H 243.0002 v 111.08984 h 20.57031 v -45 c 6.55,8.33 17.0093,12.58008 27.2793,12.58008 20.73,0.01 35.98046,-17.37039 35.98046,-40.40039 0,-23.03 -15.27,-40.40039 -36,-40.40039 z m 84.28907,0.0312 c -20.76,-0.01 -36,17.35867 -36,40.38867 0,23.03 15.27,40.39063 36,40.39063 10.81,0.01 22.15125,-4.94985 28.53125,-14.33985 l 0.70898,12.22071 h 18.64063 v -76.53125 h -18.64063 l -0.70898,12.2207 c -6.38,-9.35 -17.72125,-14.34961 -28.53125,-14.34961 z m 112.32031,0.01 c -11.7,0 -23.20961,6.54883 -28.34961,16.29883 l -0.89063,-14.17969 h -18.78906 v 76.54098 h 20.55859 v -42.70117 c 1e-5,-10.63 10.63086,-19.47852 20.38086,-19.47852 9.39,0 14.51954,4.95985 14.51954,19.83985 v 42.33984 l 20.57031,0.01 v -45.54105 c 0,-18.95 -7.63,-33.12891 -28,-33.12891 z m 169.91992,0.0195 c -20.76,0 -36,17.35063 -36,40.39063 0,23.04 15.27,40.40039 36,40.40039 10.81,0 22.1493,-4.9518 28.5293,-14.3418 l 0.71093,12.2207 18.59961,-0.01 v -76.5293 H 686.5998 l -0.71093,12.22852 c -6.38,-9.36 -17.7193,-14.35937 -28.5293,-14.35937 z M 74.879101,133.04055 v 23.59961 h 24.08984 v -23.59961 z m 209.601569,0.61914 c 12.05,0 21.78906,9.40969 21.78906,25.17969 0,15.77 -9.73906,25.16015 -21.78906,25.16015 -12.05,0 -21.79102,-9.40969 -21.79102,-25.17969 0,-15.77 9.74102,-25.16015 21.79102,-25.16015 z m 97.02929,0.01 c 12.05,0 21.78906,9.39992 21.78906,25.16992 0,15.77 -9.74882,25.16016 -21.79882,25.16016 -12.05,0 -21.80102,-9.39993 -21.79102,-25.16993 0.01,-15.77 9.75078,-25.16015 21.80078,-25.16015 z m 186.41016,0.0312 c 12.08,0 21.78906,9.38039 21.78906,25.15039 0,15.77 -9.73906,25.14844 -21.78906,25.14844 -12.05,0 -21.79102,-9.38844 -21.79102,-25.14844 0,-15.76 9.79102,-25.15039 21.79102,-25.15039 z m 95.83008,0.01 c 12.04999,0 21.78906,9.3589 21.78906,25.1289 0,15.77 -9.75883,25.16016 -21.79883,25.16016 -12.04,0 -21.80102,-9.35891 -21.79102,-25.12891 0.01,-15.77 9.80079,-25.16015 21.80079,-25.16015 z M 74.879101,171.16945 v 50.02149 h 24.08984 V 171.16945 Z M 112.77949,174.23 v 23.59961 h 24.08985 V 174.23 Z m 0,38.21094 v 50.01953 h 24.08985 v -50.01953 z"
     style="stroke:#ffffff;stroke-width:3;stroke-miterlimit:4;stroke-dasharray:none;stroke-opacity:1" />
  <g
     fill="#130754"
     id="g18" />
  <g
     id="g888">
    <g
       id="g976">
      <path
         d="m290.85 199.21c-10.27 0-20.73-4.25-27.28-12.58v45h-20.57v-111.09h18.6l.71 12.22c6.38-9.39 17.71-14.35 28.52-14.35 20.73 0 36 17.37 36 40.4s-15.25 40.41-35.98 40.4zm-6.37-65.55c-12.05 0-21.79 9.39-21.79 25.16s9.74 25.18 21.79 25.18 21.79-9.39 21.79-25.16-9.74-25.18-21.79-25.18z"
         id="path2" />
      <path
         d="m404.36 197.1-.71-12.22c-6.38 9.39-17.72 14.35-28.53 14.34-20.73 0-36-17.36-36-40.39s15.24-40.4 36-40.39c10.81 0 22.15 5 28.53 14.35l.71-12.22h18.64v76.53zm-22.85-63.43c-12.05 0-21.79 9.39-21.8 25.16s9.74 25.17 21.79 25.17 21.8-9.39 21.8-25.16-9.74-25.17-21.79-25.17z"
         id="path4" />
      <path
         d="m494.87 197.11v-42.34c0-14.88-5.13-19.84-14.52-19.84-9.75 0-20.38 8.85-20.38 19.48v42.7h-20.56v-76.54h18.79l.89 14.18c5.14-9.75 16.65-16.3 28.35-16.3 20.37 0 28 14.18 28 33.13v45.54z"
         id="path6" />
      <path
         d="m590.77 197.13-.71-12.23c-6.38 9.39-17.72 14.35-28.52 14.35-20.73 0-36-17.37-36-40.4s15.24-40.39 36-40.39c10.27 0 20.72 4.26 27.28 12.58v-40.21h20.56v106.3zm-22.85-63.43c-12 0-21.79 9.39-21.79 25.15s9.74 25.15 21.79 25.15 21.79-9.38 21.79-25.15-9.71-25.15-21.79-25.15z"
         id="path8" />
      <path
         d="m686.6 197.14-.71-12.22c-6.38 9.39-17.72 14.34-28.53 14.34-20.73 0-36-17.36-36-40.4s15.24-40.39 36-40.39c10.81 0 22.15 5 28.53 14.36l.71-12.23h18.6v76.53zm-22.85-63.43c-12 0-21.79 9.39-21.8 25.16s9.75 25.13 21.79 25.13 21.8-9.39 21.8-25.16-9.74-25.13-21.79-25.13z"
         id="path10" />
      <path
         d="m750.73 199.63a60.16 60.16 0 0 1 -30.65-8.69l3.37-14.17c6.2 3.72 15.59 8.51 26.93 8.51 8.15 0 13.82-2.48 13.82-8.86 0-5.49-5.85-7.44-16.3-9.92-18.78-4.08-25.51-14-25.51-24.81 0-12.05 9.39-23.38 30.12-23.38 12.58 0 23.57 5.49 26 6.91l-3.37 13.47a44.59 44.59 0 0 0 -22.14-6.38c-8.32 0-12.4 2.83-12.4 7.44 0 5.13 5.32 7.44 13.46 9.39 20.2 4.25 28.35 13.64 28.35 23.92.04 16.47-12.01 26.57-31.68 26.57z"
         id="path12" />
      <path
         d="m74.88 68.42h24.09v50.02h-24.09z"
         id="path14" />
      <path
         d="m74.88 171.17h24.09v50.02h-24.09z"
         id="path16" />
      <path
         d="m74.88 133.04h24.09v23.6h-24.09z"
         fill="#ffca00"
         id="path20" />
      <path
         d="m36.19 109.55h24.09v166.27h-24.09z"
         fill="#130754"
         id="path22" />
      <path
         d="m112.78 212.44h24.09v50.02h-24.09z"
         fill="#130754"
         id="path24" />
      <path
         d="m112.78 109.61h24.09v50.02h-24.09z"
         fill="#130754"
         id="path26" />
      <path
         d="m112.78 174.23h24.09v23.6h-24.09z"
         fill="#e70488"
         id="path28" />
      <path
         d="m150.67 55.39h24.09v166.27h-24.09z"
         fill="#130754"
         id="path30" />
    </g>
  </g>
</svg>
