<?xml version="1.0" encoding="UTF-8" standalone="no"?>
<svg
   xmlns:dc="http://purl.org/dc/elements/1.1/"
   xmlns:cc="http://creativecommons.org/ns#"
   xmlns:rdf="http://www.w3.org/1999/02/22-rdf-syntax-ns#"
   xmlns:svg="http://www.w3.org/2000/svg"
   xmlns="http://www.w3.org/2000/svg"
   xmlns:sodipodi="http://sodipodi.sourceforge.net/DTD/sodipodi-0.dtd"
   xmlns:inkscape="http://www.inkscape.org/namespaces/inkscape"
   id="Layer_1"
   data-name="Layer 1"
   viewBox="0 0 818.63 331.21"
   version="1.1"
   sodipodi:docname="pandas.svg"
   inkscape:version="1.0.1 (3bc2e813f5, 2020-09-07)">
  <metadata
     id="metadata909">
    <rdf:RDF>
      <cc:Work
         rdf:about="">
        <dc:format>image/svg+xml</dc:format>
        <dc:type
           rdf:resource="http://purl.org/dc/dcmitype/StillImage" />
        <dc:title>Artboard 63</dc:title>
      </cc:Work>
    </rdf:RDF>
  </metadata>
  <sodipodi:namedview
     pagecolor="#ffffff"
     bordercolor="#666666"
     borderopacity="1"
     objecttolerance="10"
     gridtolerance="10"
     guidetolerance="10"
     inkscape:pageopacity="0"
     inkscape:pageshadow="2"
     inkscape:window-width="1920"
     inkscape:window-height="1017"
     id="namedview907"
     showgrid="false"
     inkscape:zoom="0.83432076"
     inkscape:cx="409.315"
     inkscape:cy="165.605"
     inkscape:window-x="-8"
     inkscape:window-y="-8"
     inkscape:window-maximized="1"
     inkscape:current-layer="layer2" />
  <defs
     id="defs874">
    <style
       id="style872">.cls-1{fill:#130754;}.cls-2{fill:#ffca00;}.cls-3{fill:#e70488;}</style>
  </defs>
  <title
     id="title876">Artboard 63</title>
  <g
     inkscape:groupmode="layer"
     id="layer2"
     inkscape:label="Layer 2"
     style="display:inline"
     sodipodi:insensitive="true">
    <path
       class="cls-1"
       d="m 290.85,199.21 c -10.27,0 -20.73,-4.25 -27.28,-12.58 v 45 H 243 V 120.54 h 18.6 l 0.71,12.22 c 6.38,-9.39 17.71,-14.35 28.52,-14.35 20.73,0 36,17.37 36,40.4 0,23.03 -15.25,40.41 -35.98,40.4 z m -6.37,-65.55 c -12.05,0 -21.79,9.39 -21.79,25.16 0,15.77 9.74,25.18 21.79,25.18 12.05,0 21.79,-9.39 21.79,-25.16 0,-15.77 -9.74,-25.18 -21.79,-25.18 z"
       id="path930"
       style="display:inline;fill:none;stroke:#ffffff;stroke-width:18.8976;stroke-linecap:round;stroke-linejoin:round;stroke-miterlimit:4;stroke-dasharray:none;stroke-opacity:1" />
    <path
       class="cls-1"
       d="m 404.36,197.1 -0.71,-12.22 c -6.38,9.39 -17.72,14.35 -28.53,14.34 -20.73,0 -36,-17.36 -36,-40.39 0,-23.03 15.24,-40.4 36,-40.39 10.81,0 22.15,5 28.53,14.35 l 0.71,-12.22 H 423 v 76.53 z m -22.85,-63.43 c -12.05,0 -21.79,9.39 -21.8,25.16 -0.01,15.77 9.74,25.17 21.79,25.17 12.05,0 21.8,-9.39 21.8,-25.16 0,-15.77 -9.74,-25.17 -21.79,-25.17 z"
       id="path932"
       style="display:inline;fill:none;stroke:#ffffff;stroke-width:18.8976;stroke-linecap:round;stroke-linejoin:round;stroke-miterlimit:4;stroke-dasharray:none;stroke-opacity:1" />
    <path
       class="cls-1"
       d="m 494.87,197.11 v -42.34 c 0,-14.88 -5.13,-19.84 -14.52,-19.84 -9.75,0 -20.38,8.85 -20.38,19.48 v 42.7 h -20.56 v -76.54 h 18.79 l 0.89,14.18 c 5.14,-9.75 16.65,-16.3 28.35,-16.3 20.37,0 28,14.18 28,33.13 v 45.54 z"
       id="path934"
       style="display:inline;fill:none;stroke:#ffffff;stroke-width:18.8976;stroke-linecap:round;stroke-linejoin:round;stroke-miterlimit:4;stroke-dasharray:none;stroke-opacity:1" />
    <path
       class="cls-1"
       d="m 590.77,197.13 -0.71,-12.23 c -6.38,9.39 -17.72,14.35 -28.52,14.35 -20.73,0 -36,-17.37 -36,-40.4 0,-23.03 15.24,-40.39 36,-40.39 10.27,0 20.72,4.26 27.28,12.58 V 90.83 h 20.56 v 106.3 z M 567.92,133.7 c -12,0 -21.79,9.39 -21.79,25.15 0,15.76 9.74,25.15 21.79,25.15 12.05,0 21.79,-9.38 21.79,-25.15 0,-15.77 -9.71,-25.15 -21.79,-25.15 z"
       id="path936"
       style="display:inline;fill:none;stroke:#ffffff;stroke-width:18.8976;stroke-linecap:round;stroke-linejoin:round;stroke-miterlimit:4;stroke-dasharray:none;stroke-opacity:1" />
    <path
       class="cls-1"
       d="m 686.6,197.14 -0.71,-12.22 c -6.38,9.39 -17.72,14.34 -28.53,14.34 -20.73,0 -36,-17.36 -36,-40.4 0,-23.04 15.24,-40.39 36,-40.39 10.81,0 22.15,5 28.53,14.36 l 0.71,-12.23 h 18.6 v 76.53 z m -22.85,-63.43 c -12,0 -21.79,9.39 -21.8,25.16 -0.01,15.77 9.75,25.13 21.79,25.13 12.04,0 21.8,-9.39 21.8,-25.16 0,-15.77 -9.74,-25.13 -21.79,-25.13 z"
       id="path938"
       style="display:inline;fill:none;stroke:#ffffff;stroke-width:18.8976;stroke-linecap:round;stroke-linejoin:round;stroke-miterlimit:4;stroke-dasharray:none;stroke-opacity:1" />
    <path
       class="cls-1"
       d="m 750.73,199.63 a 60.16,60.16 0 0 1 -30.65,-8.69 l 3.37,-14.17 c 6.2,3.72 15.59,8.51 26.93,8.51 8.15,0 13.82,-2.48 13.82,-8.86 0,-5.49 -5.85,-7.44 -16.3,-9.92 -18.78,-4.08 -25.51,-14 -25.51,-24.81 0,-12.05 9.39,-23.38 30.12,-23.38 12.58,0 23.57,5.49 26,6.91 l -3.37,13.47 A 44.59,44.59 0 0 0 753,132.31 c -8.32,0 -12.4,2.83 -12.4,7.44 0,5.13 5.32,7.44 13.46,9.39 20.2,4.25 28.35,13.64 28.35,23.92 0.04,16.47 -12.01,26.57 -31.68,26.57 z"
       id="path940"
       style="display:inline;fill:none;stroke:#ffffff;stroke-width:18.8976;stroke-linecap:round;stroke-linejoin:round;stroke-miterlimit:4;stroke-dasharray:none;stroke-opacity:1" />
    <rect
       class="cls-1"
       x="74.879997"
       y="68.419998"
       width="24.09"
       height="50.02"
       id="rect942"
       style="display:inline;fill:none;stroke:#ffffff;stroke-width:18.8976;stroke-linecap:round;stroke-linejoin:round;stroke-miterlimit:4;stroke-dasharray:none;stroke-opacity:1" />
    <rect
       class="cls-1"
       x="74.879997"
       y="171.17"
       width="24.09"
       height="50.02"
       id="rect944"
       style="display:inline;fill:none;stroke:#ffffff;stroke-width:18.8976;stroke-linecap:round;stroke-linejoin:round;stroke-miterlimit:4;stroke-dasharray:none;stroke-opacity:1" />
    <rect
       class="cls-2"
       x="74.879997"
       y="133.03999"
       width="24.09"
       height="23.6"
       id="rect946"
       style="display:inline;fill:none;stroke:#ffffff;stroke-width:18.8976;stroke-linecap:round;stroke-linejoin:round;stroke-miterlimit:4;stroke-dasharray:none;stroke-opacity:1" />
    <rect
       class="cls-1"
       x="36.189999"
       y="109.55"
       width="24.09"
       height="166.27"
       id="rect948"
       style="display:inline;fill:none;stroke:#ffffff;stroke-width:18.8976;stroke-linecap:round;stroke-linejoin:round;stroke-miterlimit:4;stroke-dasharray:none;stroke-opacity:1" />
    <rect
       class="cls-1"
       x="112.78"
       y="212.44"
       width="24.09"
       height="50.02"
       id="rect950"
       style="display:inline;fill:none;stroke:#ffffff;stroke-width:18.8976;stroke-linecap:round;stroke-linejoin:round;stroke-miterlimit:4;stroke-dasharray:none;stroke-opacity:1" />
    <rect
       class="cls-1"
       x="112.78"
       y="109.61"
       width="24.09"
       height="50.02"
       id="rect952"
       style="display:inline;fill:none;stroke:#ffffff;stroke-width:18.8976;stroke-linecap:round;stroke-linejoin:round;stroke-miterlimit:4;stroke-dasharray:none;stroke-opacity:1" />
    <rect
       class="cls-3"
       x="112.78"
       y="174.23"
       width="24.09"
       height="23.6"
       id="rect954"
       style="display:inline;fill:none;stroke:#ffffff;stroke-width:18.8976;stroke-linecap:round;stroke-linejoin:round;stroke-miterlimit:4;stroke-dasharray:none;stroke-opacity:1" />
    <rect
       class="cls-1"
       x="150.67"
       y="55.389999"
       width="24.09"
       height="166.27"
       id="rect956"
       style="display:inline;fill:none;stroke:#ffffff;stroke-width:18.8976;stroke-linecap:round;stroke-linejoin:round;stroke-miterlimit:4;stroke-dasharray:none;stroke-opacity:1" />
  </g>
  <g
     inkscape:groupmode="layer"
     id="layer3"
     inkscape:label="Layer 3"
     style="display:inline"
     sodipodi:insensitive="true">
    <path
       class="cls-1"
       d="m 290.85,199.21 c -10.27,0 -20.73,-4.25 -27.28,-12.58 v 45 H 243 V 120.54 h 18.6 l 0.71,12.22 c 6.38,-9.39 17.71,-14.35 28.52,-14.35 20.73,0 36,17.37 36,40.4 0,23.03 -15.25,40.41 -35.98,40.4 z m -6.37,-65.55 c -12.05,0 -21.79,9.39 -21.79,25.16 0,15.77 9.74,25.18 21.79,25.18 12.05,0 21.79,-9.39 21.79,-25.16 0,-15.77 -9.74,-25.18 -21.79,-25.18 z"
       id="path878" />
    <path
       class="cls-1"
       d="m 404.36,197.1 -0.71,-12.22 c -6.38,9.39 -17.72,14.35 -28.53,14.34 -20.73,0 -36,-17.36 -36,-40.39 0,-23.03 15.24,-40.4 36,-40.39 10.81,0 22.15,5 28.53,14.35 l 0.71,-12.22 H 423 v 76.53 z m -22.85,-63.43 c -12.05,0 -21.79,9.39 -21.8,25.16 -0.01,15.77 9.74,25.17 21.79,25.17 12.05,0 21.8,-9.39 21.8,-25.16 0,-15.77 -9.74,-25.17 -21.79,-25.17 z"
       id="path880" />
    <path
       class="cls-1"
       d="m 494.87,197.11 v -42.34 c 0,-14.88 -5.13,-19.84 -14.52,-19.84 -9.75,0 -20.38,8.85 -20.38,19.48 v 42.7 h -20.56 v -76.54 h 18.79 l 0.89,14.18 c 5.14,-9.75 16.65,-16.3 28.35,-16.3 20.37,0 28,14.18 28,33.13 v 45.54 z"
       id="path882" />
    <path
       class="cls-1"
       d="m 590.77,197.13 -0.71,-12.23 c -6.38,9.39 -17.72,14.35 -28.52,14.35 -20.73,0 -36,-17.37 -36,-40.4 0,-23.03 15.24,-40.39 36,-40.39 10.27,0 20.72,4.26 27.28,12.58 V 90.83 h 20.56 v 106.3 z M 567.92,133.7 c -12,0 -21.79,9.39 -21.79,25.15 0,15.76 9.74,25.15 21.79,25.15 12.05,0 21.79,-9.38 21.79,-25.15 0,-15.77 -9.71,-25.15 -21.79,-25.15 z"
       id="path884" />
    <path
       class="cls-1"
       d="m 686.6,197.14 -0.71,-12.22 c -6.38,9.39 -17.72,14.34 -28.53,14.34 -20.73,0 -36,-17.36 -36,-40.4 0,-23.04 15.24,-40.39 36,-40.39 10.81,0 22.15,5 28.53,14.36 l 0.71,-12.23 h 18.6 v 76.53 z m -22.85,-63.43 c -12,0 -21.79,9.39 -21.8,25.16 -0.01,15.77 9.75,25.13 21.79,25.13 12.04,0 21.8,-9.39 21.8,-25.16 0,-15.77 -9.74,-25.13 -21.79,-25.13 z"
       id="path886" />
    <path
       class="cls-1"
       d="m 750.73,199.63 a 60.16,60.16 0 0 1 -30.65,-8.69 l 3.37,-14.17 c 6.2,3.72 15.59,8.51 26.93,8.51 8.15,0 13.82,-2.48 13.82,-8.86 0,-5.49 -5.85,-7.44 -16.3,-9.92 -18.78,-4.08 -25.51,-14 -25.51,-24.81 0,-12.05 9.39,-23.38 30.12,-23.38 12.58,0 23.57,5.49 26,6.91 l -3.37,13.47 A 44.59,44.59 0 0 0 753,132.31 c -8.32,0 -12.4,2.83 -12.4,7.44 0,5.13 5.32,7.44 13.46,9.39 20.2,4.25 28.35,13.64 28.35,23.92 0.04,16.47 -12.01,26.57 -31.68,26.57 z"
       id="path888" />
    <rect
       class="cls-1"
       x="74.879997"
       y="68.419998"
       width="24.09"
       height="50.02"
       id="rect890" />
    <rect
       class="cls-1"
       x="74.879997"
       y="171.17"
       width="24.09"
       height="50.02"
       id="rect892" />
    <rect
       class="cls-2"
       x="74.879997"
       y="133.03999"
       width="24.09"
       height="23.6"
       id="rect894" />
    <rect
       class="cls-1"
       x="36.189999"
       y="109.55"
       width="24.09"
       height="166.27"
       id="rect896" />
    <rect
       class="cls-1"
       x="112.78"
       y="212.44"
       width="24.09"
       height="50.02"
       id="rect898" />
    <rect
       class="cls-1"
       x="112.78"
       y="109.61"
       width="24.09"
       height="50.02"
       id="rect900" />
    <rect
       class="cls-3"
       x="112.78"
       y="174.23"
       width="24.09"
       height="23.6"
       id="rect902" />
    <rect
       class="cls-1"
       x="150.67"
       y="55.389999"
       width="24.09"
       height="166.27"
       id="rect904" />
  </g>
</svg>
